<svg
  xmlns="http://www.w3.org/2000/svg"
  fill="none"
  viewBox="0 0 33 32"
>
  <path
    fill="#ff7556"
    stroke="#ff6224"
    stroke-linecap="round"
    d="M15.867 6.886c-1.192 2.135-2.086 4.433-2.368 6.262-.7.03-4.285.386-5.337.481-.966.087-4.634.352-4.074.744.33.231.942 1.022 2.173 1.934 2.262 1.677 3.88 2.33 4.206 2.565.72.52 2.079.759 1.99 1.322-.048.308-.312 1.076-.6 2.854-.502 3.12-.806 5.27-.716 5.544.046.143.114.288.204.3.09.011.19-.115.33-.221.592-.45 1.37-1.275 2.096-2.11a93 93 0 0 0 2.995-3.659c.172-.221.38-.43.62-.167.7.762 1.12 1.508 1.342 1.736.491.504 2.138 2.692 4.249 3.555.58.238.731-.479.742-.878.014-.535.09-.983.1-1.537.015-.832.063-2.634.048-3.842-.009-.677-.386-1.437.102-1.83.233-.188.71-.328 1.29-.702.732-.472 1.261-.923 1.857-1.29.704-.432 2.677-2.047 4.193-3.474.185-.174.264-.359-.104-.42-2.08-.341-3.067-.4-3.883-.417-.864-.02-1.774.01-2.414.033-1.19.044-3.873.406-4.016-.135-.144-.54-.582-1.859-.84-3.279-.33-1.825-.584-2.373-.734-3.036-.216-.957-.549-3.848-1.25-3.228-.132.115-.314.353-.55.615-.52.573-.944 1.013-1.651 2.28Z"
  />
  <path
    fill="#0000f5"
    stroke="#0000f5"
    stroke-linecap="round"
    d="M14.867 5.886c-1.192 2.135-2.086 4.433-2.368 6.262-.7.03-4.285.386-5.337.481-.966.087-4.634.352-4.074.744.33.231.942 1.022 2.173 1.934 2.262 1.677 3.88 2.33 4.206 2.565.72.52 2.079.759 1.99 1.322-.048.308-.312 1.076-.6 2.854-.502 3.12-.806 5.27-.716 5.544.046.143.114.288.204.3.09.011.19-.115.33-.221.592-.45 1.37-1.275 2.096-2.11a93 93 0 0 0 2.995-3.659c.172-.221.38-.43.62-.167.7.762 1.12 1.508 1.342 1.736.491.504 2.138 2.692 4.249 3.555.58.238.731-.479.742-.878.014-.535.09-.983.1-1.537.015-.832.063-2.634.048-3.842-.009-.677-.386-1.437.102-1.83.233-.188.71-.328 1.29-.702.732-.472 1.261-.923 1.857-1.29.704-.432 2.677-2.047 4.193-3.474.185-.174.264-.359-.104-.42-2.08-.341-3.067-.4-3.883-.417-.864-.02-1.774.01-2.414.033-1.19.044-3.873.406-4.016-.135-.144-.54-.582-1.859-.84-3.279-.33-1.825-.584-2.373-.734-3.036-.216-.957-.549-3.848-1.25-3.228-.132.115-.314.353-.55.615-.52.573-.944 1.013-1.651 2.28Z"
  />
  <path
    fill="#f7f7f7"
    stroke="#0000f5"
    stroke-linecap="round"
    d="M13.867 4.886c-1.192 2.135-2.086 4.433-2.368 6.262-.7.03-4.285.386-5.337.481-.966.087-4.634.352-4.074.744.33.231.942 1.022 2.173 1.934 2.262 1.677 3.88 2.33 4.206 2.565.72.52 2.079.759 1.99 1.322-.048.308-.312 1.076-.6 2.854-.503 3.12-.806 5.27-.716 5.544.046.143.114.288.204.3.09.011.19-.115.33-.221.592-.45 1.37-1.275 2.096-2.11a93 93 0 0 0 2.995-3.659c.172-.221.38-.43.62-.167.7.762 1.12 1.508 1.342 1.736.491.504 2.138 2.692 4.249 3.555.58.238.731-.479.742-.878.014-.535.09-.983.1-1.537.015-.832.063-2.634.048-3.842-.009-.677-.386-1.437.102-1.83.233-.188.71-.328 1.29-.702.732-.472 1.261-.923 1.857-1.29.704-.432 2.677-2.047 4.193-3.474.185-.174.264-.359-.104-.42-2.08-.341-3.067-.4-3.883-.417-.864-.02-1.774.01-2.414.033-1.19.044-3.873.406-4.016-.135-.144-.54-.582-1.859-.84-3.279-.33-1.825-.584-2.373-.734-3.036-.216-.957-.549-3.848-1.25-3.228-.132.115-.314.353-.55.615-.52.573-.944 1.013-1.651 2.28Z"
  />
</svg>
